<?xml version="1.0" encoding="UTF-8"?>
<svg id="Layer_1" xmlns="http://www.w3.org/2000/svg" version="1.1" viewBox="0 0 1000 1000">
  <!-- Generator: Adobe Illustrator 29.5.1, SVG Export Plug-In . SVG Version: 2.1.0 Build 141)  -->
  <defs>
    <style>
      .st0 {
        fill: #2e5143;
      }
    </style>
  </defs>
  <path class="st0" d="M136.53,577.74s1.02-74.32,1.46-79.33,6.16-27.01,29.01-29.98,29.05,14.72,29.05,20.14v89.17h21.4v-82.88s2.5-29.13-17.67-40.45c-20.17-11.33-51.31-4.07-63.26,14.16v-16.28h-20.06v125.43l20.06.02Z"/>
  <path class="st0" d="M420.06,530.16c-2.83-8.91-10.53-18.19-29.06-22.19-34.07-7.34-49.31-12.06-47.47-24.45,1.85-12.38,13.39-17.24,28.3-16.74,14.9.5,25.17,7.04,24.61,20.86h20.27s.4-9.21-4.73-18.84c-.32-.61-.66-1.23-1.04-1.83-1.97-3.24-4.73-6.31-8.35-9-7.82-5.84-19.61-9.89-35.83-9.89-22.16,0-41.28,14.81-43.82,32.19-5.65-13.32-19.8-31.94-49.59-32.81-40.45-1.17-55.36,34.09-55.78,54.55-.04,1.98-.07,3.91-.09,5.77-.16,10.88-.08,19.41,0,24.21.04,2.82.09,4.36.09,4.36,0,0,3.57,42.55,51.3,46.56,0,0,37.37,2.83,51.64-30.26,0,0,7.34,32.54,50.9,30.32,41.26-2.1,46.41-23.87,48.66-33.02h0c.12-.53.24-1,.35-1.42.97-3.67,2.02-10.9-.35-18.38ZM268.76,468.13c28.71-1.87,37.16,20.82,36.98,37.34h-67.02s1.31-35.47,30.03-37.34ZM375.45,564.66c-25.44,1.83-36.58-11.48-36.58-25.27h-34.08s-5.45,25.04-33.04,24.67c-27.58-.38-32.98-21.38-34.14-42.04h89.42s-.12-10.47-.43-19.85c4.79,8.98,14.2,15.32,29.54,18.71,24.24,5.34,38.44,7.04,42.93,15.02,4.49,7.98,1.82,26.93-23.62,28.77Z"/>
  <rect class="st0" x="402.59" y="452.48" width="58.3" height="16.32"/>
  <path class="st0" d="M440.99,416.92v132.82s-.62,11.95,4.94,12.52,14.78,0,14.78,0v17.58h-20.08s-21.93.05-20.57-29.89c1.47-32.37,0-133.04,0-133.04h20.93Z"/>
  <path class="st0" d="M571.43,497.36c-7.5-28.43-33.38-49.39-64.18-49.39-18.05,0-34.39,7.2-46.35,18.88-.66.63-1.31,1.29-1.93,1.96-10.34,10.98-17.01,25.46-17.96,41.49-.08,1.34-.12,2.68-.12,4.05s.04,2.71.12,4.05c2.09,34.78,30.95,62.34,66.25,62.34,30.8,0,56.68-20.96,64.18-49.39,1.43-5.42,2.2-11.11,2.2-16.99s-.77-11.56-2.2-16.98ZM507.24,559.01c-24.67,0-44.65-20-44.65-44.67s19.99-44.65,44.65-44.65,44.67,20,44.67,44.65-20,44.67-44.67,44.67Z"/>
  <path class="st0" d="M571.43,451.29v126.36h23.17v-58.77s.79-26.5,7.75-35.6,21.82-11.53,38.77-10.64v-23.44s-32.93-3.8-46.33,18.71v-16.46l-23.36-.15Z"/>
  <path class="st0" d="M744.16,560.93c-1.63.53-3.56.97-5.12.81-3.4-.36-5.83-2.31-5.83-5.46s.13-67.88.13-67.88c0,0,1.59-24.87-20.73-35.94-17.32-8.59-56.55-8.48-71.49,14.92-1.03,1.6-1.94,3.3-2.72,5.14-2.51,5.85-3.7,12.89-3.06,21.26l21.65-.31s-.82-13.78,4.69-18.89c5.52-5.1,16-10.48,32.26-8.69,16.27,1.79,19.72,14.75,19.16,22.06-.55,7.31-6.62,12.69-20.69,13.93-14.05,1.24-39.76,3.44-53.45,14.77-14.16,11.71-14.51,42.5,2.16,55.17,16.66,12.68,50.06,16.97,72.03-8.6,0,0,1.6,16.21,16.79,16.86,15.17.65,17.63-3.48,17.63-3.48v-17.03s-1.5.74-3.41,1.38ZM688.02,562.48c-28.96,9.76-40.72-13.51-33.72-26.53,7.01-13.01,21.52-14.27,59.31-16.52,0,0,3.37,33.29-25.6,43.05Z"/>
  <path class="st0" d="M850.79,561.74c-3.4-.36-5.83-2.31-5.83-5.46s.13-67.88.13-67.88c0,0,1.59-24.87-20.73-35.94-22.31-11.07-80.99-7.7-77.28,41.31l21.65-.31s-.82-13.78,4.69-18.89c5.52-5.1,16-10.48,32.26-8.69,16.27,1.79,19.72,14.75,19.16,22.06-.55,7.31-6.62,12.69-20.68,13.93-14.07,1.24-39.76,3.44-53.46,14.77-10.98,9.08-13.65,29.62-6.55,44.29.97,1.98,2.1,3.84,3.41,5.56,1.52,2,3.29,3.79,5.3,5.33,16.66,12.68,50.06,16.97,72.03-8.6,0,0,1.6,16.21,16.79,16.86,15.17.65,17.63-3.48,17.63-3.48v-17.03s-5.14,2.55-8.54,2.18ZM799.77,562.48c-28.96,9.76-40.72-13.51-33.7-26.53,7-13.01,21.51-14.27,59.3-16.52,0,0,3.37,33.29-25.6,43.05Z"/>
  <path class="st0" d="M869.17,466.3c2.05-.66,3.59-2.27,3.59-5.49,0-3.88-2.05-5.7-7.09-5.7h-7.03v19.03h3.36v-7.32h3.97l4.23,7.32h3.74l-4.76-7.84ZM865.52,464.1h-3.52v-6.22h3.52c2.71,0,3.88.88,3.88,3.01,0,2.27-1.11,3.21-3.88,3.21ZM869.17,466.3c2.05-.66,3.59-2.27,3.59-5.49,0-3.88-2.05-5.7-7.09-5.7h-7.03v19.03h3.36v-7.32h3.97l4.23,7.32h3.74l-4.76-7.84ZM865.52,464.1h-3.52v-6.22h3.52c2.71,0,3.88.88,3.88,3.01,0,2.27-1.11,3.21-3.88,3.21ZM869.17,466.3c2.05-.66,3.59-2.27,3.59-5.49,0-3.88-2.05-5.7-7.09-5.7h-7.03v19.03h3.36v-7.32h3.97l4.23,7.32h3.74l-4.76-7.84ZM865.52,464.1h-3.52v-6.22h3.52c2.71,0,3.88.88,3.88,3.01,0,2.27-1.11,3.21-3.88,3.21ZM869.17,466.3c2.05-.66,3.59-2.27,3.59-5.49,0-3.88-2.05-5.7-7.09-5.7h-7.03v19.03h3.36v-7.32h3.97l4.23,7.32h3.74l-4.76-7.84ZM865.52,464.1h-3.52v-6.22h3.52c2.71,0,3.88.88,3.88,3.01,0,2.27-1.11,3.21-3.88,3.21ZM865.73,446.97c-10.68,0-17.79,7.11-17.79,17.79s7.11,17.86,17.79,17.86,17.79-7.16,17.79-17.86-7.09-17.79-17.79-17.79ZM865.73,479.62c-8.78,0-14.63-6-14.63-14.86s5.85-14.78,14.63-14.78,14.65,6,14.65,14.78-5.85,14.86-14.65,14.86ZM872.76,460.81c0-3.88-2.05-5.7-7.09-5.7h-7.03v19.03h3.36v-7.32h3.97l4.23,7.32h3.74l-4.76-7.84c2.05-.66,3.59-2.27,3.59-5.49ZM865.52,464.1h-3.52v-6.22h3.52c2.71,0,3.88.88,3.88,3.01,0,2.27-1.11,3.21-3.88,3.21ZM869.17,466.3c2.05-.66,3.59-2.27,3.59-5.49,0-3.88-2.05-5.7-7.09-5.7h-7.03v19.03h3.36v-7.32h3.97l4.23,7.32h3.74l-4.76-7.84ZM865.52,464.1h-3.52v-6.22h3.52c2.71,0,3.88.88,3.88,3.01,0,2.27-1.11,3.21-3.88,3.21ZM869.17,466.3c2.05-.66,3.59-2.27,3.59-5.49,0-3.88-2.05-5.7-7.09-5.7h-7.03v19.03h3.36v-7.32h3.97l4.23,7.32h3.74l-4.76-7.84ZM865.52,464.1h-3.52v-6.22h3.52c2.71,0,3.88.88,3.88,3.01,0,2.27-1.11,3.21-3.88,3.21ZM869.17,466.3c2.05-.66,3.59-2.27,3.59-5.49,0-3.88-2.05-5.7-7.09-5.7h-7.03v19.03h3.36v-7.32h3.97l4.23,7.32h3.74l-4.76-7.84ZM865.52,464.1h-3.52v-6.22h3.52c2.71,0,3.88.88,3.88,3.01,0,2.27-1.11,3.21-3.88,3.21ZM869.17,466.3c2.05-.66,3.59-2.27,3.59-5.49,0-3.88-2.05-5.7-7.09-5.7h-7.03v19.03h3.36v-7.32h3.97l4.23,7.32h3.74l-4.76-7.84ZM865.52,464.1h-3.52v-6.22h3.52c2.71,0,3.88.88,3.88,3.01,0,2.27-1.11,3.21-3.88,3.21Z"/>
</svg>